<svg width="64" height="48" viewBox="0 0 64 48" fill="none" xmlns="http://www.w3.org/2000/svg">
<g id="Hotshots logo">
<g id="BG">
<g id="Group">
<path id="Vector" d="M57.5113 24.4133H56.3748C59.8362 22.1069 62.106 18.1426 62.0576 13.6488C61.9821 6.6353 56.8666 0.992188 49.8784 0.992188C44.2209 0.992188 39.1122 4.26792 35.9596 8.64238H4.39123C2.80739 8.64238 1.52344 9.93105 1.52344 11.5207V37.3964C1.52344 38.986 2.80739 40.2747 4.39123 40.2747H13.3926V44.1302C13.3926 45.7198 14.6766 47.0085 16.2604 47.0085H46.3664C47.9502 47.0085 49.2341 45.7198 49.2341 44.1302V40.2747H57.906C59.4899 40.2747 60.7738 38.986 60.7738 37.3964V27.6878C60.7738 25.8794 59.3131 24.4133 57.5113 24.4133Z" fill="#0A6DFF"/>
<path id="Vector_2" d="M58.8896 23.65C59.889 22.6769 60.7411 21.5532 61.405 20.3235C62.5061 18.2843 63.0748 15.9724 63.0496 13.6377C63.0099 9.95703 61.6716 6.53695 59.281 4.0075C56.8387 1.42323 53.5008 0 49.8822 0C48.4161 0 46.9401 0.207776 45.4953 0.617563C44.1246 1.0063 42.778 1.5776 41.4928 2.31561C39.1924 3.63655 37.1178 5.4745 35.4664 7.6502H4.39505C2.26885 7.6502 0.539062 9.38634 0.539062 11.5204V37.396C0.539062 39.53 2.26885 41.2662 4.39505 41.2662H12.4083V44.1298C12.4083 46.2639 14.138 48 16.2642 48H46.3702C48.4964 48 50.2262 46.2639 50.2262 44.1298V41.2662H57.9099C60.0361 41.2662 61.7659 39.53 61.7659 37.396V27.6875C61.7659 25.8176 60.561 24.2248 58.8896 23.65ZM60.7777 37.396C60.7777 38.9857 59.4937 40.2744 57.9099 40.2744H49.238V44.1298C49.238 45.7195 47.954 47.0082 46.3702 47.0082H16.2642C14.6804 47.0082 13.3965 45.7195 13.3965 44.1298V40.2744H4.39505C2.81122 40.2744 1.52727 38.9857 1.52727 37.396V11.5204C1.52727 9.9307 2.81122 8.64203 4.39505 8.64203H35.9634C39.1161 4.26757 44.2247 0.991837 49.8822 0.991837C56.8704 0.991837 61.9859 6.63495 62.0614 13.6484C62.1099 18.1422 59.84 22.1065 56.3786 24.413H57.5152C59.317 24.413 60.7777 25.879 60.7777 27.6875V37.396Z" fill="white"/>
</g>
</g>
<g id="Layer 1">
<path id="Vector_3" d="M11.8684 14.9299C12.9913 14.9299 13.8811 15.2104 14.5388 15.7716C15.1963 16.3326 15.5251 17.1797 15.5251 18.3124V23.8108H12.096V19.4185C12.096 18.8414 11.9466 18.4193 11.6484 18.1521C11.35 17.885 10.9277 17.7513 10.3813 17.7513C9.79478 17.7513 9.29398 17.9171 8.87934 18.2483C8.46447 18.5797 8.25715 19.1354 8.25715 19.9155V23.8108H4.82812V11.6738H8.25715V16.2285H8.34827C8.79332 15.7796 9.30162 15.451 9.87304 15.2425C10.4446 15.0342 11.1097 14.9299 11.8684 14.9299Z" fill="white"/>
<path id="Vector_4" d="M46.1137 34.0629C46.0201 34.0787 45.9249 34.0923 45.8264 34.1009C44.6787 34.2017 44.1046 34.0026 44.1046 32.8894V30.2485H46.2227V28.161H44.1045V25.8164H40.6608V28.161H39.3047V30.2485H40.6608V33.5416C40.6608 34.6762 40.991 35.5248 41.6513 36.0869C42.3118 36.6489 43.2056 36.9299 44.3332 36.9299C45.0826 36.9299 45.7484 36.8262 46.3311 36.6188L46.1137 34.0629Z" fill="white"/>
<path id="Vector_5" d="M53.9095 31.3995C52.0349 31.1738 50.6991 31.2597 50.6991 30.5037C50.6991 30.0012 51.6489 29.8967 52.1467 29.8967C52.7155 29.8967 53.1574 29.9584 53.4724 30.0813C53.7164 30.1768 53.874 30.326 53.9473 30.5275H57.6485C57.5492 29.5664 57.0489 28.877 56.1467 28.4594C55.1867 28.0153 53.8634 27.793 52.1772 27.793C49.6324 27.793 47.0116 28.4408 47.0116 30.6996C47.0116 32.5872 48.755 33.0503 50.7127 33.3233C52.6704 33.5962 54.16 33.6269 54.16 34.417C54.16 34.9421 53.1581 35.0514 52.4515 35.0514C51.781 35.0514 51.306 34.9819 51.0267 34.8427C50.7986 34.7293 50.655 34.5394 50.5929 34.2761H46.7812C46.8405 35.0089 47.0806 35.5844 47.5068 35.9989C47.969 36.4486 48.5987 36.7592 49.3963 36.9303C50.1937 37.1014 51.1867 37.1873 52.3753 37.1873C54.3067 37.1873 57.9829 36.9851 57.9829 34.1843C57.9829 32.1672 55.7839 31.6253 53.9095 31.3995Z" fill="white"/>
<path id="Vector_6" d="M11.4564 31.3995C9.58177 31.1738 8.24596 31.2597 8.24596 30.5037C8.24596 30.0012 9.19575 29.8967 9.69354 29.8967C10.2624 29.8967 10.7043 29.9584 11.0193 30.0813C11.2633 30.1768 11.4209 30.326 11.4942 30.5275H15.1953C15.096 29.5664 14.5957 28.877 13.6935 28.4594C12.7335 28.0153 11.4102 27.793 9.72412 27.793C7.17921 27.793 4.55845 28.4408 4.55845 30.6996C4.55845 32.5872 6.3019 33.0503 8.25961 33.3233C10.2173 33.5962 11.7069 33.6269 11.7069 34.417C11.7069 34.9421 10.7049 35.0514 9.99834 35.0514C9.32788 35.0514 8.85288 34.9819 8.57357 34.8427C8.34552 34.7293 8.20192 34.5394 8.13975 34.2761H4.32812C4.38734 35.0089 4.62751 35.5844 5.05372 35.9989C5.51585 36.4486 6.14556 36.7592 6.94317 36.9303C7.74056 37.1014 8.73359 37.1873 9.92218 37.1873C11.8536 37.1873 15.5298 36.9851 15.5298 34.1843C15.5298 32.1672 13.3308 31.6253 11.4564 31.3995Z" fill="white"/>
<g id="Group_2">
<path id="Vector_7" d="M28.0182 40.2759V40.8109H28.0636C28.301 40.5873 28.5649 40.4236 28.8555 40.3198C29.1459 40.216 29.478 40.1641 29.852 40.1641C30.4127 40.1641 30.8572 40.3038 31.1856 40.5833C31.5139 40.8628 31.6782 41.2848 31.6782 41.849V44.5882H29.9656V42.364C29.9656 41.8104 29.6802 41.5335 29.1094 41.5335C28.8163 41.5335 28.5663 41.6161 28.3592 41.7811C28.152 41.9462 28.0485 42.223 28.0485 42.6116V44.5882H26.3359V40.2759H28.0182Z" fill="white"/>
<path id="Vector_8" d="M34.0572 40.2759V40.8109H34.1027C34.3401 40.5873 34.604 40.4236 34.8946 40.3198C35.185 40.216 35.5171 40.1641 35.891 40.1641C36.4518 40.1641 36.8962 40.3038 37.2247 40.5833C37.553 40.8628 37.7172 41.2848 37.7172 41.849V44.5882H36.0047V42.364C36.0047 41.8104 35.7192 41.5335 35.1484 41.5335C34.8554 41.5335 34.6053 41.6161 34.3982 41.7811C34.191 41.9462 34.0875 42.223 34.0875 42.6116V44.5882H32.375V40.2759H34.0572Z" fill="white"/>
<path id="Vector_9" d="M40.1266 44.5877H38.4141V40.2754H40.1266V44.5877Z" fill="white"/>
<path id="Vector_10" d="M42.5555 42.842C41.582 42.7062 40.715 42.4759 40.715 41.5372C40.715 40.414 42.0183 40.0918 43.2838 40.0918C44.1223 40.0918 44.7804 40.2023 45.2578 40.4232C45.7352 40.6442 45.9864 41.0181 46.0118 41.5452H44.1856C44.1704 41.3962 44.0844 41.291 43.9279 41.2298C43.7713 41.1686 43.5515 41.1379 43.2687 41.1379C43.0211 41.1379 42.5488 41.1899 42.5488 41.4398C42.5488 41.8158 43.213 41.773 44.1452 41.8853C45.0774 41.9976 46.1709 42.267 46.1709 43.2701C46.1709 44.6629 44.3428 44.7635 43.3823 44.7635C42.7913 44.7635 42.2974 44.7208 41.9009 44.6357C41.5042 44.5506 41.1911 44.3961 40.9613 44.1725C40.7313 43.9489 40.6089 43.6322 40.5938 43.2222H42.4806C42.4957 43.4033 42.5727 43.5284 42.7117 43.5975C42.8506 43.6668 43.0868 43.7014 43.4202 43.7014C43.7716 43.7014 44.2698 43.647 44.2698 43.3858C44.2698 42.9929 43.5291 42.9777 42.5555 42.842Z" fill="white"/>
<path id="Vector_11" d="M19.712 43.2292C19.1412 43.2793 18.8557 43.1804 18.8557 42.6267V41.3135H19.909V40.2753H18.8557V39.1094H17.1431V40.2753H16.4688V41.3135H17.1431V42.9511C17.1431 43.5153 17.3074 43.9373 17.6357 44.2168C17.9641 44.4963 18.4086 44.6361 18.9694 44.6361C19.3421 44.6361 19.6731 44.5844 19.9629 44.4812L19.8548 43.2103C19.8082 43.2182 19.7609 43.2249 19.712 43.2292Z" fill="white"/>
<path id="Vector_12" d="M25.8702 42.4348C25.8702 41.685 25.6318 41.1081 25.155 40.7039C24.6781 40.2998 23.9629 40.0977 23.0092 40.0977C22.0504 40.0977 21.3327 40.2998 20.8559 40.7039C20.379 41.1081 20.1406 41.685 20.1406 42.4348C20.1406 43.1846 20.379 43.7602 20.8559 44.1617C21.3327 44.5632 22.0504 44.7639 23.0092 44.7639C24.0133 44.7639 24.7247 44.6203 25.1436 44.3332C25.5404 44.0611 25.7602 43.7221 25.8038 43.3164H23.9604C23.8111 43.5935 23.4943 43.7841 23.0092 43.7841C22.6762 43.7841 22.4213 43.71 22.2448 43.5617C22.0681 43.4135 21.9621 43.1341 21.9269 42.8575H25.8475C25.8627 42.7353 25.8702 42.5943 25.8702 42.4348ZM21.9647 41.8285C22.0253 41.5845 22.1413 41.3832 22.3129 41.2614C22.4844 41.1397 22.7165 41.0787 23.0092 41.0787C23.3018 41.0787 23.5326 41.1397 23.7018 41.2614C23.8708 41.3832 23.9856 41.5845 24.0461 41.8285H21.9647Z" fill="white"/>
</g>
<path id="Vector_13" d="M23.3868 28.0462C24.5101 28.0462 25.4002 28.3268 26.0582 28.8882C26.7159 29.4494 27.0449 30.2969 27.0449 31.43V36.9305H23.6144V32.5365C23.6144 31.9592 23.4649 31.537 23.1666 31.2697C22.8681 31.0025 22.4457 30.8687 21.8991 30.8687C21.3123 30.8687 20.8113 31.0345 20.3965 31.3659C19.9815 31.6973 19.7741 32.2533 19.7741 33.0337V36.9305H16.3438V24.7891H19.7741V29.3453H19.8653C20.3105 28.8962 20.819 28.5674 21.3906 28.3589C21.9624 28.1505 22.6277 28.0462 23.3868 28.0462Z" fill="white"/>
<path id="Vector_14" d="M49.2828 22.8319C44.7187 22.9597 41.459 23.8177 38.939 25.8557C39.6863 24.2962 41.4688 21.8657 43.1577 20.6836C40.252 21.7956 36.1887 25.4528 33.8118 33.1196C33.8118 33.1196 33.2071 23.3912 40.4658 16.7988C40.4658 16.7988 35.6399 19.3519 33.1406 26.4716C33.7201 16.7635 39.7434 7.31742 46.862 5.1245C50.0666 4.40868 51.2514 6.87788 51.3428 8.48819C51.4864 11.0169 47.0771 13.3165 45.8752 16.5458C44.7192 19.6518 46.5872 22.3655 49.2828 22.8319ZM56.8362 8.63007C55.3006 6.3876 52.9388 5.05619 50.4424 4.76172C52.3265 5.19658 53.3222 6.73119 53.5301 8.09936C54.0745 11.683 49.5823 13.8271 48.1144 16.8578C46.1194 20.977 51.1918 22.799 52.5891 22.2485C53.2527 21.9963 53.897 21.6609 54.508 21.2395C58.6201 18.4028 59.6625 12.7573 56.8362 8.63007Z" fill="url(#paint0_radial_4151_6686)"/>
<path id="Vector_15" d="M48.1113 16.8586C49.5791 13.828 54.0714 11.6838 53.5269 8.10018C53.3191 6.73201 52.3233 5.1974 50.4392 4.76254C49.813 4.68617 48.5036 4.62323 46.8588 5.12532C50.0635 4.4095 51.2482 6.8787 51.3396 8.48901C51.4832 11.0178 47.074 13.3173 45.8721 16.5466C44.7161 19.6527 46.584 22.3663 49.2796 22.8327C50.3922 22.847 51.5142 22.6566 52.5859 22.2493C51.1886 22.7998 46.1162 20.9778 48.1113 16.8586Z" fill="white"/>
<path id="Vector_16" d="M34.0335 20.984C32.9042 21.0791 32.339 20.8745 32.339 19.7703V17.1294H34.4571V15.0418H32.3389V12.6973H28.8952V15.0418H27.5391V17.1294H28.8952V20.4225C28.8952 21.557 29.2254 22.4056 29.8857 22.9678C30.5462 23.5298 31.4399 23.8107 32.5675 23.8107C32.8711 23.8107 33.1605 23.7931 33.4367 23.7591C33.5889 22.8231 33.7896 21.896 34.0335 20.984Z" fill="white"/>
<path id="Vector_17" d="M27.6468 19.3896C27.6468 17.8841 27.1687 16.7254 26.2126 15.9147C25.2553 15.1026 23.8211 14.6973 21.9089 14.6973C19.9856 14.6973 18.5465 15.1026 17.5904 15.9147C16.6343 16.7254 16.1562 17.8841 16.1562 19.3896C16.1562 20.8951 16.6343 22.0512 17.5904 22.858C18.5465 23.6635 19.9856 24.0663 21.9089 24.0663C22.9431 24.0663 23.8361 23.9474 24.5908 23.7118C24.0981 22.9062 23.568 22.1036 23.0073 21.3235C22.7056 21.4545 22.34 21.5207 21.9089 21.5207C21.1801 21.5207 20.6341 21.333 20.2697 20.9589C19.9053 20.5861 19.7225 20.0622 19.7225 19.3896C19.7225 18.717 19.9053 18.1944 20.2697 17.8203C20.6341 17.4462 21.1801 17.2598 21.9089 17.2598C22.6378 17.2598 23.1813 17.4462 23.5407 17.8203C23.9002 18.1944 24.0793 18.717 24.0793 19.3896C24.0793 19.6164 24.0578 19.8254 24.017 20.0183C25.0076 20.5817 25.9884 21.2745 26.9354 22.0482C27.409 21.3348 27.6468 20.4491 27.6468 19.3896Z" fill="white"/>
<path id="Vector_18" d="M32.4785 27.8653C29.6607 24.1481 25.3328 19.9699 21.2266 18.8145C24.6159 21.7028 27.6853 25.7647 29.3363 28.9553C30.0976 28.3514 31.1443 27.9879 32.4785 27.8653Z" fill="url(#paint1_linear_4151_6686)"/>
<path id="Vector_19" d="M37.8533 29.0338C37.586 28.8071 37.2802 28.6133 36.9387 28.45C36.2604 29.2973 35.7003 30.1952 35.3172 31.0999C35.5858 31.4581 35.7199 31.9273 35.7199 32.5087C35.7199 33.1813 35.5408 33.7053 35.1814 34.0781C34.8219 34.4521 34.2784 34.6398 33.5496 34.6398C32.8208 34.6398 32.2748 34.4521 31.9103 34.0781C31.5459 33.7053 31.3631 33.1813 31.3631 32.5087C31.3631 31.8362 31.5459 31.3135 31.9103 30.9394C32.2748 30.5653 32.8207 30.3789 33.5496 30.3789C33.6766 30.3789 33.7976 30.3851 33.9132 30.3966C33.9911 29.6511 34.1174 28.7852 34.3195 27.8406C34.072 27.8248 33.8157 27.8164 33.5496 27.8164C31.6262 27.8164 30.1871 28.2218 29.231 29.0338C28.2749 29.8445 27.7969 31.0033 27.7969 32.5087C27.7969 34.0142 28.2749 35.1703 29.231 35.9772C30.1871 36.7827 31.6262 37.1854 33.5496 37.1854C35.4618 37.1854 36.8959 36.7827 37.8533 35.9772C38.8094 35.1703 39.2874 34.0142 39.2874 32.5087C39.2874 31.0033 38.8094 29.8445 37.8533 29.0338Z" fill="white"/>
</g>
</g>
<defs>
<radialGradient id="paint0_radial_4151_6686" cx="0" cy="0" r="1" gradientUnits="userSpaceOnUse" gradientTransform="translate(53.3224 10.0104) scale(32.2294 32.3479)">
<stop offset="0.011321" stop-color="#E6FF00"/>
<stop offset="0.057192" stop-color="#D7FB01"/>
<stop offset="0.145227" stop-color="#B0F204"/>
<stop offset="0.26643" stop-color="#71E309"/>
<stop offset="0.414857" stop-color="#1BCF0F"/>
<stop offset="0.417195" stop-color="#1ACF10"/>
<stop offset="0.485985" stop-color="#1ED00F"/>
<stop offset="0.558663" stop-color="#2AD20E"/>
<stop offset="0.633132" stop-color="#40D70D"/>
<stop offset="0.708864" stop-color="#5DDE0A"/>
<stop offset="0.785565" stop-color="#83E707"/>
<stop offset="0.861885" stop-color="#B1F204"/>
<stop offset="0.936215" stop-color="#E6FF00"/>
</radialGradient>
<linearGradient id="paint1_linear_4151_6686" x1="22.191" y1="17.9301" x2="30.2075" y2="27.4703" gradientUnits="userSpaceOnUse">
<stop stop-color="#E6FF00"/>
<stop offset="0.109318" stop-color="#D8FB01"/>
<stop offset="0.314541" stop-color="#B4F303"/>
<stop offset="0.59357" stop-color="#7AE508"/>
<stop offset="0.932556" stop-color="#2AD20E"/>
<stop offset="1" stop-color="#1ACF10"/>
</linearGradient>
</defs>
</svg>
