<svg width="257" height="160" viewBox="0 0 257 160" fill="none" xmlns="http://www.w3.org/2000/svg">
<path d="M97.557 122.359V126.847H97.94C99.9395 124.971 102.162 123.598 104.61 122.728C107.056 121.857 109.853 121.421 113.003 121.421C117.726 121.421 121.47 122.594 124.236 124.938C127.002 127.282 128.385 130.821 128.385 135.553V158.527H113.96V139.873C113.96 135.229 111.556 132.907 106.748 132.907C104.28 132.907 102.173 133.6 100.429 134.984C98.6839 136.368 97.8123 138.69 97.8123 141.949V158.527H83.3877V122.359H97.557Z" fill="#0A6DFF" style="fill:#0A6DFF;fill:color(display-p3 0.0392 0.4275 1.0000);fill-opacity:1;"/>
<path d="M148.426 122.359V126.847H148.809C150.808 124.971 153.031 123.598 155.478 122.728C157.925 121.857 160.722 121.421 163.871 121.421C168.595 121.421 172.338 122.594 175.105 124.938C177.87 127.282 179.254 130.821 179.254 135.553V158.527H164.829V139.873C164.829 135.229 162.424 132.907 157.617 132.907C155.148 132.907 153.042 133.6 151.298 134.984C149.553 136.368 148.681 138.69 148.681 141.949V158.527H134.256V122.359H148.426Z" fill="#0A6DFF" style="fill:#0A6DFF;fill:color(display-p3 0.0392 0.4275 1.0000);fill-opacity:1;"/>
<path d="M199.55 158.527H185.125V122.359H199.55V158.527Z" fill="#0A6DFF" style="fill:#0A6DFF;fill:color(display-p3 0.0392 0.4275 1.0000);fill-opacity:1;"/>
<path d="M219.967 143.884C211.767 142.746 204.464 140.814 204.464 132.942C204.464 123.521 215.442 120.819 226.101 120.819C233.164 120.819 238.707 121.746 242.728 123.598C246.749 125.452 248.865 128.588 249.078 133.009H233.696C233.569 131.759 232.845 130.877 231.526 130.363C230.207 129.85 228.356 129.593 225.973 129.593C223.888 129.593 219.91 130.029 219.91 132.125C219.91 135.278 225.505 134.919 233.357 135.861C241.208 136.803 250.419 139.062 250.419 147.475C250.419 159.157 235.021 160 226.931 160C221.952 160 217.793 159.642 214.453 158.928C211.112 158.215 208.474 156.919 206.538 155.044C204.602 153.168 203.571 150.512 203.443 147.074H219.336C219.463 148.592 220.111 149.642 221.282 150.221C222.452 150.802 224.442 151.092 227.25 151.092C230.21 151.092 234.406 150.636 234.406 148.446C234.406 145.15 228.167 145.023 219.967 143.884Z" fill="#0A6DFF" style="fill:#0A6DFF;fill:color(display-p3 0.0392 0.4275 1.0000);fill-opacity:1;"/>
<path d="M79.4534 140.464C79.4534 134.176 77.4452 129.337 73.4289 125.947C69.4125 122.558 63.388 120.863 55.3552 120.863C47.2797 120.863 41.2342 122.558 37.2179 125.947C33.2015 129.337 31.1934 134.176 31.1934 140.464C31.1934 146.753 33.2015 151.581 37.2179 154.948C41.2342 158.316 47.2797 159.999 55.3552 159.999C63.8123 159.999 69.8049 158.794 73.3332 156.386C76.6751 154.104 78.5265 151.261 78.8935 147.858H63.3672C62.1095 150.182 59.4414 151.781 55.3552 151.781C52.5502 151.781 50.4035 151.16 48.9163 149.916C47.4281 148.672 46.5356 146.329 46.2388 144.01H79.2621C79.3897 142.984 79.4534 141.802 79.4534 140.464ZM46.5575 135.897C47.0675 133.743 48.0447 131.967 49.4901 130.892C50.9345 129.818 52.8898 129.28 55.3552 129.28C57.8196 129.28 59.7641 129.818 61.1886 130.892C62.612 131.967 63.5792 133.743 64.0892 135.897H46.5575Z" fill="#0A6DFF" style="fill:#0A6DFF;fill:color(display-p3 0.0392 0.4275 1.0000);fill-opacity:1;"/>
<path d="M27.5859 147.133C22.7781 147.554 20.3736 146.724 20.3736 142.08V131.066H29.2453V122.359H20.3736V112.58H5.94897V122.359H0.268555V131.066H5.94897V144.801C5.94897 149.533 7.33223 153.072 10.0978 155.416C12.8642 157.761 16.6079 158.933 21.3312 158.933C24.4701 158.933 27.2586 158.499 29.6994 157.634L28.789 146.975C28.3969 147.041 27.9983 147.097 27.5859 147.133Z" fill="#0A6DFF" style="fill:#0A6DFF;fill:color(display-p3 0.0392 0.4275 1.0000);fill-opacity:1;"/>
<path d="M194.387 116.156C198.24 115.394 201.304 112.196 201.249 107.358C200.844 65.1846 192.678 0.839069 156.136 0.00751799C112.357 -0.988711 38.5592 97.3398 31.931 107.315C29.478 111.006 29.6489 113.965 31.7469 115.512C34.0129 117.183 37.0872 116.328 40.4764 112.451C54.9035 95.9486 116.731 17.1331 149.612 19.5152C182.183 21.8748 184.943 97.199 184.927 107.755C184.921 111.618 187.206 117.287 194.387 116.156Z" fill="url(#paint0_linear_4025_43466)" style=""/>
<path d="M15.7051 70.8141C45.6217 70.2551 130.697 72.1912 186.179 114.093C192.648 118.979 201.34 115.479 201.249 107.358C201.249 100.92 191.496 96.6736 183.95 92.2925C128.923 60.3431 35.0288 56.8099 13.1834 61.8741C9.82208 62.6533 5.76465 63.9266 5.76465 66.9258C5.76465 70.8073 10.6009 70.9095 15.7051 70.8141Z" fill="url(#paint1_linear_4025_43466)" style=""/>
<path d="M13.1834 61.8741C9.82208 62.6533 5.76465 63.9266 5.76465 66.9259C5.76465 70.8073 10.6009 70.9095 15.7052 70.8141C42.2557 70.318 77.3325 55.2439 234.393 66.337C246.351 67.1816 255.331 60.9307 255.602 49.9728C255.873 38.9922 247.747 30.9397 235.592 31.2048C172.946 32.5717 100.553 40.9969 13.1834 61.8741Z" fill="url(#paint2_linear_4025_43466)" style=""/>
<defs>
<linearGradient id="paint0_linear_4025_43466" x1="30.1323" y1="58.1619" x2="201.25" y2="58.1619" gradientUnits="userSpaceOnUse">
<stop offset="0.294443" stop-color="#1ACF10" style="stop-color:#1ACF10;stop-color:color(display-p3 0.1020 0.8118 0.0627);stop-opacity:1;"/>
<stop offset="0.707845" stop-color="#2AD504" style="stop-color:#2AD504;stop-color:color(display-p3 0.1647 0.8353 0.0157);stop-opacity:1;"/>
<stop offset="0.83206" stop-color="#31D800" style="stop-color:#31D800;stop-color:color(display-p3 0.1922 0.8471 0.0000);stop-opacity:1;"/>
</linearGradient>
<linearGradient id="paint1_linear_4025_43466" x1="5.76465" y1="88.1584" x2="201.25" y2="88.1584" gradientUnits="userSpaceOnUse">
<stop offset="0.450063" stop-color="#63E906" style="stop-color:#63E906;stop-color:color(display-p3 0.3882 0.9137 0.0235);stop-opacity:1;"/>
<stop offset="0.946567" stop-color="#31D800" style="stop-color:#31D800;stop-color:color(display-p3 0.1922 0.8471 0.0000);stop-opacity:1;"/>
</linearGradient>
<linearGradient id="paint2_linear_4025_43466" x1="5.76465" y1="51.0161" x2="255.608" y2="51.0161" gradientUnits="userSpaceOnUse">
<stop offset="0.399873" stop-color="#63E906" style="stop-color:#63E906;stop-color:color(display-p3 0.3882 0.9137 0.0235);stop-opacity:1;"/>
<stop offset="0.9" stop-color="#AFF500" style="stop-color:#AFF500;stop-color:color(display-p3 0.6863 0.9608 0.0000);stop-opacity:1;"/>
</linearGradient>
</defs>
</svg>
